<?xml version="1.0" encoding="UTF-8"?>
<svg width="100px" height="25px" viewBox="0 0 100 25" version="1.1" xmlns="http://www.w3.org/2000/svg" xmlns:xlink="http://www.w3.org/1999/xlink">
    <!-- Generator: Sketch 52.2 (67145) - http://www.bohemiancoding.com/sketch -->
    <title>logo-compact</title>
    <desc>Created with Sketch.</desc>
    <g id="Page-1" stroke="none" stroke-width="1" fill="none" fill-rule="evenodd">
        <g id="1---Homepage" transform="translate(-1169.000000, -5764.000000)" fill-rule="nonzero">
            <g id="Group-9-Copy" transform="translate(172.000000, 5680.000000)">
                <g id="logo-compact" transform="translate(997.000000, 84.000000)">
                    <polygon id="Path" fill="#2A1334" points="0.152777778 24.5 0.152777778 0.0555555556 5.98611111 0.0555555556 5.98611111 24.4861111"></polygon>
                    <path d="M18.1666667,24.9305556 C16.4861111,24.9722222 14.8194444,24.5694444 13.3333333,23.7777778 C11.9722222,23.0416667 10.8333333,21.9444444 10.0555556,20.6111111 C9.25,19.1944444 8.83333333,17.5972222 8.86111111,15.9722222 C8.81944444,14.3472222 9.23611111,12.7361111 10.0416667,11.3194444 C10.8194444,9.98611111 11.9583333,8.88888889 13.3194444,8.16666667 C16.3611111,6.65277778 19.9444444,6.65277778 22.9861111,8.16666667 C24.3472222,8.88888889 25.4861111,9.98611111 26.2638889,11.3194444 C27.0833333,12.7361111 27.4861111,14.3472222 27.4583333,15.9861111 C27.4861111,17.6111111 27.0833333,19.2222222 26.2638889,20.6388889 C25.4722222,21.9722222 24.3472222,23.0694444 22.9861111,23.8055556 C21.5138889,24.5694444 19.8472222,24.9722222 18.1666667,24.9305556 Z M18.1666667,20.3055556 C19.125,20.3333333 20.0416667,19.8888889 20.625,19.125 C21.2777778,18.2083333 21.5972222,17.0972222 21.5416667,15.9583333 C21.5972222,14.8333333 21.2777778,13.7222222 20.625,12.8055556 C19.5277778,11.4444444 17.5277778,11.2361111 16.1666667,12.3472222 C16,12.4861111 15.8472222,12.6388889 15.7083333,12.8055556 C15.0555556,13.7222222 14.7222222,14.8333333 14.7916667,15.9583333 C14.7361111,17.0833333 15.0555556,18.1944444 15.7083333,19.125 C16.2916667,19.9027778 17.2083333,20.3472222 18.1666667,20.3055556 Z" id="Shape" fill="#2A1334"></path>
                    <path d="M36.1666667,15.125 L36.1666667,24.5 L30.3472222,24.5 L30.3472222,0.0555555556 L36.1666667,0.0555555556 L36.1666667,9.43055556 C37.3333333,7.90277778 39.1666667,7.01388889 41.0833333,7.01388889 C42.9305556,7.01388889 44.4166667,7.61111111 45.5416667,8.81944444 C46.6666667,10.0277778 47.2222222,11.75 47.2222222,14.0138889 L47.2222222,24.4861111 L41.3888889,24.4861111 L41.3888889,14.6805556 C41.3888889,13.6805556 41.1666667,12.9305556 40.7222222,12.4444444 C40.2361111,11.9444444 39.5555556,11.6944444 38.8611111,11.7222222 C38.1388889,11.6944444 37.4305556,11.9722222 36.9166667,12.4861111 C36.4166667,13.0277778 36.1666667,13.8888889 36.1666667,15.125 Z" id="Path" fill="#2A1334"></path>
                    <path d="M62.1527778,24.5 L61.8472222,22.2638889 C61.2916667,23.0833333 60.5416667,23.7638889 59.6527778,24.2222222 C58.75,24.6944444 57.75,24.9444444 56.7222222,24.9444444 C54.7361111,24.9444444 53.2222222,24.3611111 52.1666667,23.1944444 C51.1111111,22.0277778 50.5972222,20.3333333 50.5972222,18.125 L50.5972222,7.47222222 L56.4166667,7.47222222 L56.4166667,17.4444444 C56.4166667,19.2916667 57.2638889,20.2222222 58.9583333,20.2222222 C60.75,20.2222222 61.6388889,19.1111111 61.6388889,16.875 L61.6388889,7.47222222 L67.4583333,7.47222222 L67.4583333,24.5138889 L62.1527778,24.5138889 L62.1527778,24.5 Z" id="Path" fill="#2A1334"></path>
                    <path d="M83.4722222,24.5 L83.1666667,22.2638889 C82.0833333,23.9722222 80.1805556,25 78.1388889,24.9444444 C76.7083333,24.9722222 75.3055556,24.5694444 74.0972222,23.7916667 C72.9166667,23.0138889 71.9722222,21.9166667 71.3888889,20.625 C70.7222222,19.1666667 70.3888889,17.5833333 70.4166667,15.9722222 C70.3888889,14.3611111 70.7083333,12.7777778 71.3888889,11.3194444 C71.9722222,10.0416667 72.8888889,8.95833333 74.0416667,8.16666667 C75.1944444,7.40277778 76.5555556,7 77.9444444,7.02777778 C78.9305556,7.01388889 79.9027778,7.23611111 80.7916667,7.68055556 C81.6388889,8.09722222 82.375,8.69444444 82.9722222,9.43055556 L82.9722222,0.0555555556 L88.7916667,0.0555555556 L88.7916667,24.4861111 L83.4722222,24.5 Z M79.7222222,20.3055556 C80.6805556,20.3333333 81.5833333,19.8888889 82.1527778,19.125 C82.8055556,18.2083333 83.125,17.0972222 83.0694444,15.9583333 C83.125,14.8333333 82.8055556,13.7083333 82.1527778,12.7916667 C81.5833333,12.0277778 80.6805556,11.5833333 79.7222222,11.6111111 C78.75,11.5833333 77.8333333,12.0277778 77.2638889,12.7916667 C76.6111111,13.7222222 76.2916667,14.8333333 76.3611111,15.9722222 C76.3055556,17.0972222 76.625,18.2083333 77.2777778,19.1388889 C77.8472222,19.9027778 78.7638889,20.3472222 79.7222222,20.3055556 Z" id="Shape" fill="#2A1334"></path>
                    <path d="M95.9583333,24.8611111 C95.2638889,24.875 94.5972222,24.6944444 94,24.3472222 C93.4166667,24.0138889 92.9305556,23.5277778 92.5972222,22.9444444 C91.9027778,21.7361111 91.9027778,20.2361111 92.5972222,19.0277778 C92.9305556,18.4444444 93.4166667,17.9583333 94,17.625 C95.2083333,16.9305556 96.7083333,16.9305556 97.9166667,17.625 C98.5,17.9583333 98.9861111,18.4444444 99.3194444,19.0277778 C100.013889,20.2361111 100.013889,21.7361111 99.3194444,22.9444444 C98.9861111,23.5277778 98.5,24.0138889 97.9166667,24.3472222 C97.3333333,24.6944444 96.6527778,24.875 95.9583333,24.8611111 Z" id="Path" fill="#00A6FF"></path>
                </g>
            </g>
        </g>
    </g>
</svg>